<mxfile host="Electron" agent="Mozilla/5.0 (Windows NT 10.0; Win64; x64) AppleWebKit/537.36 (KHTML, like Gecko) draw.io/28.1.2 Chrome/138.0.7204.243 Electron/37.4.0 Safari/537.36" version="28.1.2">
  <diagram name="Page-1" id="9e-053QjuTtfH-ZiuE96">
    <mxGraphModel dx="773" dy="1528" grid="1" gridSize="10" guides="1" tooltips="1" connect="1" arrows="1" fold="1" page="1" pageScale="1" pageWidth="850" pageHeight="1100" math="0" shadow="0">
      <root>
        <mxCell id="0" />
        <mxCell id="1" parent="0" />
        <mxCell id="wqS5_0ff_Z7fuWtRaQJo-3" value="++++" style="rounded=0;whiteSpace=wrap;html=1;rotation=-90;fillColor=none;dashed=1;fontStyle=1" parent="1" vertex="1">
          <mxGeometry x="-110" y="329.67999999999995" width="384.38" height="130" as="geometry" />
        </mxCell>
        <mxCell id="wqS5_0ff_Z7fuWtRaQJo-10" value="&lt;font style=&quot;font-size: 18px;&quot;&gt;sources&lt;/font&gt;" style="text;strokeColor=none;fillColor=none;html=1;fontSize=24;fontStyle=1;verticalAlign=middle;align=center;" parent="1" vertex="1">
          <mxGeometry x="44.69" y="167.94" width="75" height="30" as="geometry" />
        </mxCell>
        <mxCell id="wqS5_0ff_Z7fuWtRaQJo-12" value="&lt;span style=&quot;font-size: 18px;&quot;&gt;Data Warehouse&lt;/span&gt;" style="text;strokeColor=none;fillColor=none;html=1;fontSize=24;fontStyle=1;verticalAlign=middle;align=center;" parent="1" vertex="1">
          <mxGeometry x="419.71000000000004" y="163.68999999999997" width="75" height="30" as="geometry" />
        </mxCell>
        <mxCell id="wqS5_0ff_Z7fuWtRaQJo-14" value="" style="rounded=0;whiteSpace=wrap;html=1;rotation=-90;fillColor=none;dashed=1;" parent="1" vertex="1">
          <mxGeometry x="235.54" y="149.68" width="384.38" height="490" as="geometry" />
        </mxCell>
        <mxCell id="wqS5_0ff_Z7fuWtRaQJo-15" value="" style="rounded=0;whiteSpace=wrap;html=1;rotation=-90;fillColor=none;strokeColor=#FFB570;" parent="1" vertex="1">
          <mxGeometry x="108.10999999999999" y="348.45" width="324.25" height="130" as="geometry" />
        </mxCell>
        <mxCell id="wqS5_0ff_Z7fuWtRaQJo-16" value="" style="rounded=0;whiteSpace=wrap;html=1;rotation=-90;fillColor=#FFB570;strokeColor=#FFF4C3;" parent="1" vertex="1">
          <mxGeometry x="256.65000000000003" y="164.42" width="27.19" height="130" as="geometry" />
        </mxCell>
        <mxCell id="wqS5_0ff_Z7fuWtRaQJo-17" value="" style="rounded=0;whiteSpace=wrap;html=1;rotation=-90;fillColor=none;strokeColor=#CCCCCC;" parent="1" vertex="1">
          <mxGeometry x="262" y="348.96" width="325" height="130" as="geometry" />
        </mxCell>
        <mxCell id="wqS5_0ff_Z7fuWtRaQJo-18" value="" style="rounded=0;whiteSpace=wrap;html=1;rotation=-90;fillColor=#CCCCCC;strokeColor=#CCCCCC;" parent="1" vertex="1">
          <mxGeometry x="410.03" y="164.42" width="28.95" height="130" as="geometry" />
        </mxCell>
        <mxCell id="wqS5_0ff_Z7fuWtRaQJo-19" value="" style="rounded=0;whiteSpace=wrap;html=1;rotation=-90;fillColor=none;strokeColor=light-dark(#FFB570,#FFD966);" parent="1" vertex="1">
          <mxGeometry x="419.71" y="347.3" width="325" height="130" as="geometry" />
        </mxCell>
        <mxCell id="wqS5_0ff_Z7fuWtRaQJo-20" value="" style="rounded=0;whiteSpace=wrap;html=1;rotation=-90;fillColor=light-dark(#FFB570,#FFD966);" parent="1" vertex="1">
          <mxGeometry x="569.39" y="164.42" width="25.64" height="130" as="geometry" />
        </mxCell>
        <mxCell id="wqS5_0ff_Z7fuWtRaQJo-23" value="beonze layer" style="text;strokeColor=none;fillColor=none;fontSize=15;fontStyle=1;verticalAlign=middle;align=center;fontColor=light-dark(#000000,#000000);" parent="1" vertex="1">
          <mxGeometry x="220.23000000000002" y="209.42" width="100" height="40" as="geometry" />
        </mxCell>
        <mxCell id="wqS5_0ff_Z7fuWtRaQJo-24" value="silver layer" style="text;strokeColor=none;fillColor=none;fontSize=15;fontStyle=1;verticalAlign=middle;align=center;fontColor=light-dark(#000000,#000000);" parent="1" vertex="1">
          <mxGeometry x="374.51" y="215.80999999999997" width="100" height="26" as="geometry" />
        </mxCell>
        <mxCell id="wqS5_0ff_Z7fuWtRaQJo-25" value="gold layer" style="text;strokeColor=none;fillColor=none;fontSize=15;fontStyle=1;verticalAlign=middle;align=center;fontColor=light-dark(#000000,#000000);" parent="1" vertex="1">
          <mxGeometry x="532.21" y="208.3" width="100" height="40" as="geometry" />
        </mxCell>
        <mxCell id="wqS5_0ff_Z7fuWtRaQJo-29" value="" style="shape=flexArrow;endArrow=classic;html=1;rounded=0;labelBackgroundColor=#000000;fontColor=#000000;exitX=0.5;exitY=1;exitDx=0;exitDy=0;fillColor=#1ba1e2;strokeColor=#006EAF;" parent="1" edge="1">
          <mxGeometry width="50" height="50" relative="1" as="geometry">
            <mxPoint x="479.5900000000001" y="360.00000000000006" as="sourcePoint" />
            <mxPoint x="519.7800000000002" y="360.00000000000006" as="targetPoint" />
          </mxGeometry>
        </mxCell>
        <mxCell id="wqS5_0ff_Z7fuWtRaQJo-31" value="" style="shape=flexArrow;endArrow=classic;html=1;rounded=0;labelBackgroundColor=#000000;fontColor=#000000;exitX=0.5;exitY=1;exitDx=0;exitDy=0;fillColor=#1ba1e2;strokeColor=#006EAF;" parent="1" edge="1">
          <mxGeometry width="50" height="50" relative="1" as="geometry">
            <mxPoint x="328.10999999999996" y="360.51" as="sourcePoint" />
            <mxPoint x="368.11" y="360.51" as="targetPoint" />
          </mxGeometry>
        </mxCell>
        <mxCell id="58Op6znzzpwowci_cMFn-2" value="" style="rounded=0;whiteSpace=wrap;html=1;rotation=-90;fillColor=none;dashed=1;" parent="1" vertex="1">
          <mxGeometry x="569.39" y="331.91999999999996" width="384.38" height="130" as="geometry" />
        </mxCell>
        <mxCell id="58Op6znzzpwowci_cMFn-4" value="&lt;b&gt;&lt;font style=&quot;font-size: 10px;&quot;&gt;CRM&lt;/font&gt;&lt;/b&gt;" style="image;aspect=fixed;html=1;points=[];align=center;fontSize=12;image=img/lib/azure2/general/Folder_Blank.svg;" parent="1" vertex="1">
          <mxGeometry x="60" y="294.41999999999996" width="45.31" height="36.77" as="geometry" />
        </mxCell>
        <mxCell id="58Op6znzzpwowci_cMFn-5" value="" style="image;aspect=fixed;html=1;points=[];align=center;fontSize=12;image=img/lib/azure2/general/File.svg;" parent="1" vertex="1">
          <mxGeometry x="90.95000000000002" y="317.62" width="17.16" height="21.14" as="geometry" />
        </mxCell>
        <mxCell id="58Op6znzzpwowci_cMFn-6" value="&lt;b&gt;&lt;font style=&quot;font-size: 10px;&quot;&gt;ERP&lt;/font&gt;&lt;/b&gt;" style="image;aspect=fixed;html=1;points=[];align=center;fontSize=12;image=img/lib/azure2/general/Folder_Blank.svg;" parent="1" vertex="1">
          <mxGeometry x="60" y="393.03" width="45.31" height="36.77" as="geometry" />
        </mxCell>
        <mxCell id="58Op6znzzpwowci_cMFn-7" value="" style="image;aspect=fixed;html=1;points=[];align=center;fontSize=12;image=img/lib/azure2/general/File.svg;" parent="1" vertex="1">
          <mxGeometry x="90.95000000000002" y="415.91" width="17.16" height="21.14" as="geometry" />
        </mxCell>
        <mxCell id="58Op6znzzpwowci_cMFn-8" value="" style="endArrow=none;html=1;rounded=0;entryX=0.282;entryY=0.868;entryDx=0;entryDy=0;entryPerimeter=0;exitX=0.282;exitY=0.099;exitDx=0;exitDy=0;exitPerimeter=0;fontSize=15;startSize=10;endSize=10;strokeWidth=2;" parent="1" source="wqS5_0ff_Z7fuWtRaQJo-3" target="wqS5_0ff_Z7fuWtRaQJo-3" edge="1">
          <mxGeometry width="50" height="50" relative="1" as="geometry">
            <mxPoint x="39.67" y="478.46" as="sourcePoint" />
            <mxPoint x="119.69000000000003" y="478.4478799999999" as="targetPoint" />
          </mxGeometry>
        </mxCell>
        <mxCell id="58Op6znzzpwowci_cMFn-9" value="&lt;font size=&quot;1&quot;&gt;&lt;b&gt;object type:&lt;/b&gt; CSV files&lt;/font&gt;&lt;div&gt;&lt;font size=&quot;1&quot;&gt;&lt;br&gt;&lt;/font&gt;&lt;/div&gt;&lt;div&gt;&lt;font size=&quot;1&quot;&gt;&lt;b&gt;interface:&lt;/b&gt; files in folder&lt;/font&gt;&lt;/div&gt;" style="text;html=1;align=center;verticalAlign=middle;whiteSpace=wrap;rounded=0;" parent="1" vertex="1">
          <mxGeometry x="20" y="500" width="120" height="30" as="geometry" />
        </mxCell>
        <mxCell id="58Op6znzzpwowci_cMFn-10" value="&lt;font style=&quot;font-size: 18px;&quot;&gt;consume&lt;/font&gt;" style="text;strokeColor=none;fillColor=none;html=1;fontSize=24;fontStyle=1;verticalAlign=middle;align=center;" parent="1" vertex="1">
          <mxGeometry x="714.2700000000001" y="164.42" width="75" height="30" as="geometry" />
        </mxCell>
        <mxCell id="58Op6znzzpwowci_cMFn-11" value="" style="html=1;verticalLabelPosition=bottom;align=center;labelBackgroundColor=#ffffff;verticalAlign=top;strokeWidth=2;strokeColor=#d79b00;shadow=0;dashed=0;shape=mxgraph.ios7.icons.data;fillColor=#ffcd28;gradientColor=#ffa500;" parent="1" vertex="1">
          <mxGeometry x="247.29000000000002" y="277.33" width="45.87" height="53.86" as="geometry" />
        </mxCell>
        <mxCell id="58Op6znzzpwowci_cMFn-13" value="" style="html=1;verticalLabelPosition=bottom;align=center;labelBackgroundColor=#ffffff;verticalAlign=top;strokeWidth=2;strokeColor=#d6b656;shadow=0;dashed=0;shape=mxgraph.ios7.icons.data;fillColor=#fff2cc;gradientColor=#ffd966;" parent="1" vertex="1">
          <mxGeometry x="564.2099999999999" y="280.73" width="45.57" height="51.19" as="geometry" />
        </mxCell>
        <mxCell id="58Op6znzzpwowci_cMFn-14" value="" style="shape=flexArrow;endArrow=classic;html=1;rounded=0;labelBackgroundColor=#000000;fontColor=#000000;exitX=0.5;exitY=1;exitDx=0;exitDy=0;fillColor=#1ba1e2;strokeColor=#006EAF;fillStyle=auto;" parent="1" edge="1">
          <mxGeometry width="50" height="50" relative="1" as="geometry">
            <mxPoint x="149.99999999999994" y="360" as="sourcePoint" />
            <mxPoint x="190" y="360" as="targetPoint" />
          </mxGeometry>
        </mxCell>
        <mxCell id="58Op6znzzpwowci_cMFn-15" value="&lt;font style=&quot;font-size: 9px;&quot;&gt;&lt;b style=&quot;&quot;&gt;object type:&lt;/b&gt;&amp;nbsp;tables&lt;/font&gt;&lt;div&gt;&lt;font style=&quot;font-size: 9px;&quot;&gt;&lt;br&gt;&lt;/font&gt;&lt;/div&gt;&lt;div style=&quot;&quot;&gt;&lt;font style=&quot;font-size: 9px;&quot;&gt;&lt;b&gt;load:&lt;/b&gt;&lt;/font&gt;&lt;/div&gt;&lt;div style=&quot;text-align: right;&quot;&gt;&lt;font style=&quot;font-size: 9px;&quot;&gt;&amp;nbsp; &amp;nbsp; &amp;nbsp; * batch processing&amp;nbsp; &amp;nbsp;&lt;/font&gt;&lt;/div&gt;&lt;div style=&quot;text-align: right;&quot;&gt;&lt;font style=&quot;font-size: 9px;&quot;&gt;&amp;nbsp; &amp;nbsp; &amp;nbsp; *full load&amp;nbsp; &amp;nbsp; &amp;nbsp; &amp;nbsp; &amp;nbsp; &amp;nbsp; &amp;nbsp; &amp;nbsp; &amp;nbsp; &amp;nbsp;&lt;/font&gt;&lt;/div&gt;&lt;div style=&quot;text-align: right;&quot;&gt;&lt;font style=&quot;font-size: 9px;&quot;&gt;&amp;nbsp; &amp;nbsp; &amp;nbsp; * truncate and insert&amp;nbsp;&lt;/font&gt;&lt;/div&gt;&lt;div style=&quot;&quot;&gt;&lt;font style=&quot;font-size: 9px;&quot;&gt;&lt;br&gt;&lt;/font&gt;&lt;/div&gt;&lt;div style=&quot;&quot;&gt;&lt;font style=&quot;font-size: 9px;&quot;&gt;no &lt;b&gt;transformations&lt;/b&gt;&lt;/font&gt;&lt;/div&gt;&lt;div style=&quot;&quot;&gt;&lt;font style=&quot;font-size: 9px;&quot;&gt;&lt;b&gt;&lt;br&gt;&lt;/b&gt;&lt;/font&gt;&lt;/div&gt;&lt;div style=&quot;&quot;&gt;&lt;font style=&quot;font-size: 9px;&quot;&gt;&lt;b style=&quot;&quot;&gt;data model:&lt;/b&gt; none (as-is)&lt;/font&gt;&lt;/div&gt;" style="text;html=1;align=left;verticalAlign=middle;whiteSpace=wrap;rounded=0;" parent="1" vertex="1">
          <mxGeometry x="208.10999999999999" y="448.45" width="120" height="30" as="geometry" />
        </mxCell>
        <mxCell id="58Op6znzzpwowci_cMFn-16" value="" style="endArrow=none;html=1;rounded=0;entryX=0.282;entryY=0.868;entryDx=0;entryDy=0;entryPerimeter=0;exitX=0.282;exitY=0.099;exitDx=0;exitDy=0;exitPerimeter=0;fontSize=15;startSize=10;endSize=10;strokeWidth=2;strokeColor=light-dark(#FFB570,#D3955A);" parent="1" edge="1">
          <mxGeometry width="50" height="50" relative="1" as="geometry">
            <mxPoint x="220.24" y="380" as="sourcePoint" />
            <mxPoint x="320.24" y="380" as="targetPoint" />
          </mxGeometry>
        </mxCell>
        <mxCell id="58Op6znzzpwowci_cMFn-17" value="&lt;font style=&quot;font-size: 11px;&quot;&gt;&lt;b&gt;cleaned, standardized&amp;nbsp;&lt;/b&gt;&lt;/font&gt;&lt;b style=&quot;font-size: 11px; background-color: transparent; color: light-dark(rgb(0, 0, 0), rgb(255, 255, 255));&quot;&gt;data&lt;/b&gt;" style="text;html=1;align=center;verticalAlign=middle;whiteSpace=wrap;rounded=0;" parent="1" vertex="1">
          <mxGeometry x="359.51" y="339.27" width="130" height="30" as="geometry" />
        </mxCell>
        <mxCell id="58Op6znzzpwowci_cMFn-18" value="&lt;font style=&quot;font-size: 11px;&quot;&gt;&lt;b&gt;business-ready data&lt;/b&gt;&lt;/font&gt;" style="text;html=1;align=center;verticalAlign=middle;whiteSpace=wrap;rounded=0;" parent="1" vertex="1">
          <mxGeometry x="519.78" y="339.49" width="120" height="30" as="geometry" />
        </mxCell>
        <mxCell id="58Op6znzzpwowci_cMFn-19" value="" style="html=1;verticalLabelPosition=bottom;align=center;labelBackgroundColor=#ffffff;verticalAlign=top;strokeWidth=2;strokeColor=#23445d;shadow=0;dashed=0;shape=mxgraph.ios7.icons.data;fillColor=#bac8d3;" parent="1" vertex="1">
          <mxGeometry x="404.88" y="277.84" width="45.87" height="53.86" as="geometry" />
        </mxCell>
        <mxCell id="58Op6znzzpwowci_cMFn-20" value="" style="endArrow=none;html=1;rounded=0;entryX=0.282;entryY=0.868;entryDx=0;entryDy=0;entryPerimeter=0;exitX=0.282;exitY=0.099;exitDx=0;exitDy=0;exitPerimeter=0;fontSize=15;startSize=10;endSize=10;strokeWidth=2;strokeColor=light-dark(#B3B3B3,#CCCCCC);" parent="1" edge="1">
          <mxGeometry width="50" height="50" relative="1" as="geometry">
            <mxPoint x="373.98" y="380.51000000000005" as="sourcePoint" />
            <mxPoint x="473.98" y="380.51000000000005" as="targetPoint" />
          </mxGeometry>
        </mxCell>
        <mxCell id="58Op6znzzpwowci_cMFn-21" value="" style="endArrow=none;html=1;rounded=0;entryX=0.282;entryY=0.868;entryDx=0;entryDy=0;entryPerimeter=0;exitX=0.282;exitY=0.099;exitDx=0;exitDy=0;exitPerimeter=0;fontSize=15;startSize=10;endSize=10;strokeWidth=2;strokeColor=light-dark(#FFB570,#FFD966);" parent="1" edge="1">
          <mxGeometry width="50" height="50" relative="1" as="geometry">
            <mxPoint x="532.2099999999999" y="380.7300000000001" as="sourcePoint" />
            <mxPoint x="632.2099999999999" y="380.7300000000001" as="targetPoint" />
          </mxGeometry>
        </mxCell>
        <mxCell id="58Op6znzzpwowci_cMFn-22" value="&lt;span style=&quot;font-size: 11px;&quot;&gt;&lt;b&gt;raw data&lt;/b&gt;&lt;/span&gt;" style="text;html=1;align=center;verticalAlign=middle;whiteSpace=wrap;rounded=0;" parent="1" vertex="1">
          <mxGeometry x="205.23" y="338.76" width="130" height="30" as="geometry" />
        </mxCell>
        <mxCell id="58Op6znzzpwowci_cMFn-23" value="&lt;font style=&quot;font-size: 9px;&quot;&gt;&lt;b style=&quot;&quot;&gt;object type:&lt;/b&gt;&amp;nbsp;tables&lt;/font&gt;&lt;div&gt;&lt;div style=&quot;&quot;&gt;&lt;font style=&quot;font-size: 9px;&quot;&gt;&lt;b&gt;load:&lt;/b&gt;&lt;/font&gt;&lt;/div&gt;&lt;div style=&quot;text-align: right;&quot;&gt;&lt;font style=&quot;font-size: 9px;&quot;&gt;&amp;nbsp; &amp;nbsp; &amp;nbsp; * batch processing&amp;nbsp; &amp;nbsp;&lt;/font&gt;&lt;/div&gt;&lt;div style=&quot;text-align: right;&quot;&gt;&lt;font style=&quot;font-size: 9px;&quot;&gt;&amp;nbsp; &amp;nbsp; &amp;nbsp; *full load&amp;nbsp; &amp;nbsp; &amp;nbsp; &amp;nbsp; &amp;nbsp; &amp;nbsp; &amp;nbsp; &amp;nbsp; &amp;nbsp; &amp;nbsp;&lt;/font&gt;&lt;/div&gt;&lt;div style=&quot;text-align: right;&quot;&gt;&lt;font style=&quot;font-size: 9px;&quot;&gt;&amp;nbsp; &amp;nbsp; &amp;nbsp; * truncate and insert&amp;nbsp;&lt;/font&gt;&lt;/div&gt;&lt;div style=&quot;&quot;&gt;&lt;font style=&quot;font-size: 9px;&quot;&gt;&lt;span style=&quot;background-color: transparent; color: light-dark(rgb(0, 0, 0), rgb(255, 255, 255));&quot;&gt;&amp;nbsp;&lt;/span&gt;&lt;b style=&quot;background-color: transparent; color: light-dark(rgb(0, 0, 0), rgb(255, 255, 255));&quot;&gt;transformations&lt;/b&gt;&lt;/font&gt;&lt;/div&gt;&lt;div style=&quot;&quot;&gt;&lt;font style=&quot;font-size: 9px;&quot;&gt;&lt;b&gt;&amp;nbsp; &amp;nbsp; &amp;nbsp; &amp;nbsp;* data cleaning&lt;/b&gt;&lt;/font&gt;&lt;/div&gt;&lt;div style=&quot;&quot;&gt;&lt;font style=&quot;font-size: 9px;&quot;&gt;&lt;b&gt;&amp;nbsp; &amp;nbsp; &amp;nbsp; &amp;nbsp;* data standrization&lt;/b&gt;&lt;/font&gt;&lt;/div&gt;&lt;div style=&quot;&quot;&gt;&lt;font style=&quot;font-size: 9px;&quot;&gt;&lt;b&gt;&amp;nbsp; &amp;nbsp; &amp;nbsp; * &lt;/b&gt;datanormalization&lt;/font&gt;&lt;/div&gt;&lt;div style=&quot;&quot;&gt;&lt;font style=&quot;font-size: 9px;&quot;&gt;&amp;nbsp; &amp;nbsp; &amp;nbsp; * derived columns&lt;/font&gt;&lt;/div&gt;&lt;div style=&quot;&quot;&gt;&lt;font style=&quot;font-size: 9px;&quot;&gt;&amp;nbsp; &amp;nbsp; &amp;nbsp; * data enrichment&lt;/font&gt;&lt;/div&gt;&lt;div style=&quot;&quot;&gt;&lt;font style=&quot;font-size: 9px;&quot;&gt;&lt;b style=&quot;&quot;&gt;data model:&lt;/b&gt; none (as-is)&lt;/font&gt;&lt;/div&gt;&lt;/div&gt;" style="text;html=1;align=left;verticalAlign=middle;whiteSpace=wrap;rounded=0;" parent="1" vertex="1">
          <mxGeometry x="374.51" y="470.51" width="120" as="geometry" />
        </mxCell>
        <mxCell id="58Op6znzzpwowci_cMFn-24" value="&lt;font style=&quot;font-size: 9px;&quot;&gt;&lt;b style=&quot;&quot;&gt;object type:&lt;/b&gt;&amp;nbsp;views&lt;/font&gt;&lt;div&gt;&lt;div style=&quot;&quot;&gt;&lt;font style=&quot;font-size: 9px;&quot;&gt;&lt;b&gt;&lt;br&gt;&lt;/b&gt;&lt;/font&gt;&lt;/div&gt;&lt;div style=&quot;&quot;&gt;&lt;font style=&quot;font-size: 9px;&quot;&gt;&lt;b&gt;no load:&lt;/b&gt;&lt;/font&gt;&lt;/div&gt;&lt;div style=&quot;&quot;&gt;&lt;span style=&quot;font-size: 9px; text-align: right; background-color: transparent; color: light-dark(rgb(0, 0, 0), rgb(255, 255, 255));&quot;&gt;&amp;nbsp;&lt;/span&gt;&lt;/div&gt;&lt;div style=&quot;&quot;&gt;&lt;font style=&quot;font-size: 9px;&quot;&gt;&lt;span style=&quot;background-color: transparent; color: light-dark(rgb(0, 0, 0), rgb(255, 255, 255));&quot;&gt;&amp;nbsp;&lt;/span&gt;&lt;b style=&quot;background-color: transparent; color: light-dark(rgb(0, 0, 0), rgb(255, 255, 255));&quot;&gt;transformations&lt;/b&gt;&lt;/font&gt;&lt;/div&gt;&lt;div style=&quot;&quot;&gt;&lt;font style=&quot;font-size: 9px;&quot;&gt;&lt;b&gt;&amp;nbsp; &amp;nbsp; &amp;nbsp; &amp;nbsp;* data integrations&lt;/b&gt;&lt;/font&gt;&lt;/div&gt;&lt;div style=&quot;&quot;&gt;&lt;font style=&quot;font-size: 9px;&quot;&gt;&lt;b&gt;&amp;nbsp; &amp;nbsp; &amp;nbsp; &amp;nbsp;* aggregations&lt;/b&gt;&lt;/font&gt;&lt;/div&gt;&lt;div style=&quot;&quot;&gt;&lt;font style=&quot;font-size: 9px;&quot;&gt;&amp;nbsp; &amp;nbsp; &amp;nbsp; &amp;nbsp;* business logic&lt;/font&gt;&lt;/div&gt;&lt;div style=&quot;&quot;&gt;&lt;font style=&quot;font-size: 9px;&quot;&gt;&lt;b style=&quot;&quot;&gt;data model:&lt;/b&gt;&amp;nbsp;&lt;/font&gt;&lt;/div&gt;&lt;div style=&quot;&quot;&gt;&lt;b style=&quot;font-size: 9px; background-color: transparent; color: light-dark(rgb(0, 0, 0), rgb(255, 255, 255));&quot;&gt;&amp;nbsp; &amp;nbsp; &amp;nbsp; &amp;nbsp;* star schema&lt;/b&gt;&lt;/div&gt;&lt;div&gt;&lt;font style=&quot;font-size: 9px;&quot;&gt;&lt;b&gt;&amp;nbsp; &amp;nbsp; &amp;nbsp; &amp;nbsp;* flat table&lt;/b&gt;&lt;/font&gt;&lt;/div&gt;&lt;div&gt;&lt;font style=&quot;font-size: 9px;&quot;&gt;&amp;nbsp; &amp;nbsp; &amp;nbsp; &amp;nbsp;* aggregated table&lt;/font&gt;&lt;/div&gt;&lt;/div&gt;&lt;div&gt;&lt;font style=&quot;font-size: 9px;&quot;&gt;&lt;br&gt;&lt;/font&gt;&lt;/div&gt;" style="text;html=1;align=left;verticalAlign=middle;whiteSpace=wrap;rounded=0;" parent="1" vertex="1">
          <mxGeometry x="526.99" y="479.18" width="120" as="geometry" />
        </mxCell>
        <mxCell id="58Op6znzzpwowci_cMFn-25" value="" style="image;aspect=fixed;html=1;points=[];align=center;fontSize=12;image=img/lib/azure2/analytics/Power_BI_Embedded.svg;" parent="1" vertex="1">
          <mxGeometry x="723.3199999999999" y="280.73" width="38.39" height="51.19" as="geometry" />
        </mxCell>
        <mxCell id="58Op6znzzpwowci_cMFn-26" value="" style="editableCssRules=.*;html=1;shape=image;verticalLabelPosition=bottom;labelBackgroundColor=#ffffff;verticalAlign=top;aspect=fixed;imageAspect=0;image=data:image/svg+xml,PHN2ZyB4bWxucz0iaHR0cDovL3d3dy53My5vcmcvMjAwMC9zdmciIHhtbG5zOnY9Imh0dHBzOi8vdmVjdGEuaW8vbmFubyIgd2lkdGg9IjIwIiBoZWlnaHQ9IjE3LjUiIGZpbGwtcnVsZT0iZXZlbm9kZCIgdmlld0JveD0iMCAwIDIwIDE3LjUiPiYjeGE7CTxzdHlsZSB0eXBlPSJ0ZXh0L2NzcyI+JiN4YTsJLnN0MHtmaWxsOiM0Mjg1ZjQ7fSYjeGE7CS5zdDF7ZmlsbDojNjY5ZGY2O30mI3hhOwk8L3N0eWxlPiYjeGE7CTxwYXRoIGNsYXNzPSJzdDAiIGQ9Ik0xOC45MSAxMC42M0wyMCA4Ljc1IDE3LjgyIDVoLTMuMDdsLTEuMDYtMS44NkgxMi41VjEuODhoMS45NGwxLjA2IDEuODdoMS41OUwxNC45IDBoLTQuMjd2NWgxLjczbC43MyAxLjI1aC0yLjQ2djIuNWgyLjI2bDEuMDUtMS44N2gyLjgxbC43MiAxLjI1aC0yLjhMMTMuNjIgMTBoLTIuOTl2NC4zOGgzLjRsLS43MiAxLjI1aC0yLjY4djEuODdoNC4yN2wzLjI4LTUuNjJoLTIuMDlsLS43MyAxLjI1SDEyLjV2LTEuMjVoMi4xNGwuNzQtMS4yNXoiLz4mI3hhOwk8cGF0aCBjbGFzcz0ic3QxIiBkPSJNMS4wOSAxMC42M0wwIDguNzUgMi4xOCA1aDMuMDdsMS4wNi0xLjg2SDcuNVYxLjg4SDUuNTZMNC41IDMuNzVIMi45MUw1LjEgMGg0LjI4djVINy42NGwtLjczIDEuMjVoMi40N3YyLjVINy4xMUw2LjA2IDYuODhIMy4yNWwtLjcyIDEuMjVoMi44TDYuMzggMTBoM3Y0LjM4SDUuOTdsLjcyIDEuMjVoMi42OXYxLjg3SDUuMWwtMy4yOC01LjYyaDIuMDlsLjczIDEuMjVINy41di0xLjI1SDUuMzZsLS43NC0xLjI1eiIvPiYjeGE7PC9zdmc+;" parent="1" vertex="1">
          <mxGeometry x="769.39" y="288.5" width="40" height="36" as="geometry" />
        </mxCell>
        <mxCell id="58Op6znzzpwowci_cMFn-27" value="&lt;span style=&quot;font-size: 11px;&quot;&gt;BI and reporting&lt;/span&gt;" style="text;html=1;align=center;verticalAlign=middle;whiteSpace=wrap;rounded=0;" parent="1" vertex="1">
          <mxGeometry x="698.39" y="341" width="120" height="30" as="geometry" />
        </mxCell>
        <mxCell id="58Op6znzzpwowci_cMFn-29" value="" style="image;sketch=0;aspect=fixed;html=1;points=[];align=center;fontSize=12;image=img/lib/mscae/Chart.svg;imageBackground=none;" parent="1" vertex="1">
          <mxGeometry x="739.31" y="389.66" width="24.93" height="23.93" as="geometry" />
        </mxCell>
        <mxCell id="58Op6znzzpwowci_cMFn-30" value="ad-hoc&lt;div&gt;SQL queries&lt;/div&gt;" style="shadow=0;dashed=0;html=1;strokeColor=none;fillColor=#97D077;labelPosition=center;verticalLabelPosition=bottom;verticalAlign=top;align=center;outlineConnect=0;shape=mxgraph.veeam.magnifying_glass;pointerEvents=1;" parent="1" vertex="1">
          <mxGeometry x="735.5" y="383.90000000000003" width="50.69" height="48.14" as="geometry" />
        </mxCell>
        <mxCell id="58Op6znzzpwowci_cMFn-31" value="" style="editableCssRules=.*;html=1;shape=image;verticalLabelPosition=bottom;labelBackgroundColor=#ffffff;verticalAlign=top;aspect=fixed;imageAspect=0;image=data:image/svg+xml,PHN2ZyB4bWxucz0iaHR0cDovL3d3dy53My5vcmcvMjAwMC9zdmciIHhtbG5zOnY9Imh0dHBzOi8vdmVjdGEuaW8vbmFubyIgd2lkdGg9IjE2Ljk3OTk5OTU0MjIzNjMyOCIgaGVpZ2h0PSIyMCIgdmlld0JveD0iMCAwIDE2Ljk3OTk5OTU0MjIzNjMyOCAyMCI+JiN4YTsJPHN0eWxlIHR5cGU9InRleHQvY3NzIj4mI3hhOwkuc3Qwe2ZpbGw6IzY2OWRmNjt9JiN4YTsJLnN0MXtmaWxsOiM0Mjg1ZjQ7fSYjeGE7CS5zdDJ7ZmlsbDojYWVjYmZhO30mI3hhOwk8L3N0eWxlPiYjeGE7CTxnIGNsYXNzPSJzdDAiPiYjeGE7CQk8cGF0aCBkPSJNOC40OSAxMC4yOUwuMjQgNS4zNSA4LjQ5LjU4bDguMjQgNC42N3pNMS43NiA1LjM2bDYuNzIgNCA2LjcyLTQuMTEtNi43MS0zLjc4eiIvPiYjeGE7CQk8cGF0aCBkPSJNOC40OSAxOS40NEwuMjEgMTMuODkgOC40OSA5LjNsOC4xNSA0LjY0em0tNi44LTUuNWw2LjggNC41NiA2LjctNC41LTYuNy0zLjgyeiIvPiYjeGE7CTwvZz4mI3hhOwk8ZyBjbGFzcz0ic3QxIj4mI3hhOwkJPHBhdGggZD0iTS42MTMgNS41MDJsLjY3NS0uMzcxIDcuNDc3IDEzLjYtLjY3NS4zNzF6Ii8+JiN4YTsJCTxwYXRoIGQ9Ik04LjE5NCAxOC44MjZsNy4zMDEtMTMuNTU5LjY3OC4zNjUtNy4zMDEgMTMuNTU5ek0uNzE2IDEzLjY4N0w4LjA5Ni45MDRsLjY2Ny4zODUtNy4zOCAxMi43ODN6Ii8+JiN4YTsJCTxwYXRoIGQ9Ik04LjE5NCAxLjIxNGwuNjY5LS4zODEgNy40MDUgMTIuOTg3LS42NjkuMzgxeiIvPiYjeGE7CQk8cGF0aCBkPSJNOC4xMy45NmguNzdWMTguOWgtLjc3ek0uNTUgNS40M2guNzd2OC42NkguNTV6bTE0Ljk3LS4wOWguNzdWMTRoLS43N3oiLz4mI3hhOwk8L2c+JiN4YTsJPGcgY2xhc3M9InN0MiI+JiN4YTsJCTxjaXJjbGUgY3g9IjguNTIiIGN5PSIxLjA3IiByPSIxLjA3Ii8+JiN4YTsJCTxjaXJjbGUgY3g9IjE1LjkxIiBjeT0iNS4zNCIgcj0iMS4wNyIvPiYjeGE7CQk8Y2lyY2xlIGN4PSIxLjA3IiBjeT0iNS4zNCIgcj0iMS4wNyIvPiYjeGE7CQk8Y2lyY2xlIGN4PSI4LjUyIiBjeT0iOS45MyIgcj0iMS42OCIvPiYjeGE7CQk8Y2lyY2xlIGN4PSIxNS45MSIgY3k9IjEzLjk0IiByPSIxLjA3Ii8+JiN4YTsJCTxjaXJjbGUgY3g9IjEuMDciIGN5PSIxMy45NCIgcj0iMS4wNyIvPiYjeGE7CQk8Y2lyY2xlIGN4PSI4LjUyIiBjeT0iMTguOTMiIHI9IjEuMDciLz4mI3hhOwkJPHBhdGggZD0iTTguNDkgMTAuMjlMLjI0IDUuMzUgOC40OS41OGw4LjI0IDQuNjd6TTEuNzYgNS4zNmw2LjcyIDQgNi43Mi00LjExLTYuNzEtMy43OHoiLz4mI3hhOwkJPHBhdGggZD0iTTguNDkgMTkuNDRMLjIxIDEzLjg5IDguNDkgOS4zbDguMTUgNC42NHptLTYuOC01LjVsNi44IDQuNTYgNi43LTQuNS02LjctMy44MnoiLz4mI3hhOwkJPHBhdGggZD0iTS42MTMgNS41MDJsLjY3NS0uMzcxIDcuNDc3IDEzLjYtLjY3NS4zNzF6Ii8+JiN4YTsJCTxwYXRoIGQ9Ik04LjE5NCAxOC44MjZsNy4zMDEtMTMuNTU5LjY3OC4zNjUtNy4zMDEgMTMuNTU5ek0uNzE2IDEzLjY4N0w4LjA5Ni45MDRsLjY2Ny4zODUtNy4zOCAxMi43ODN6Ii8+JiN4YTsJCTxwYXRoIGQ9Ik04LjE5NCAxLjIxNGwuNjY5LS4zODEgNy40MDUgMTIuOTg3LS42NjkuMzgxeiIvPiYjeGE7CQk8cGF0aCBkPSJNOC4xMy45NmguNzdWMTguOWgtLjc3ek0uNTUgNS40M2guNzd2OC42NkguNTV6bTE0Ljk3LS4wOWguNzdWMTRoLS43N3oiLz4mI3hhOwk8L2c+JiN4YTsJPGcgY2xhc3M9InN0MCI+JiN4YTsJCTxjaXJjbGUgY3g9IjguNTIiIGN5PSIxLjA3IiByPSIxLjA3Ii8+JiN4YTsJCTxjaXJjbGUgY3g9IjE1LjkxIiBjeT0iNS4zNCIgcj0iMS4wNyIvPiYjeGE7CQk8Y2lyY2xlIGN4PSIxLjA3IiBjeT0iNS4zNCIgcj0iMS4wNyIvPiYjeGE7CQk8Y2lyY2xlIGN4PSI4LjUyIiBjeT0iOS45MyIgcj0iMS42OCIvPiYjeGE7CQk8Y2lyY2xlIGN4PSIxNS45MSIgY3k9IjEzLjk0IiByPSIxLjA3Ii8+JiN4YTsJCTxjaXJjbGUgY3g9IjEuMDciIGN5PSIxMy45NCIgcj0iMS4wNyIvPiYjeGE7CQk8Y2lyY2xlIGN4PSI4LjUyIiBjeT0iMTguOTMiIHI9IjEuMDciLz4mI3hhOwk8L2c+JiN4YTs8L3N2Zz4=;" parent="1" vertex="1">
          <mxGeometry x="739.6" y="492.24" width="42.5" height="50" as="geometry" />
        </mxCell>
        <mxCell id="58Op6znzzpwowci_cMFn-33" value="&lt;span style=&quot;font-size: 11px;&quot;&gt;machine learning&lt;/span&gt;" style="text;html=1;align=center;verticalAlign=middle;whiteSpace=wrap;rounded=0;" parent="1" vertex="1">
          <mxGeometry x="698.39" y="542.24" width="120" height="30" as="geometry" />
        </mxCell>
        <mxCell id="58Op6znzzpwowci_cMFn-34" value="" style="shape=flexArrow;endArrow=classic;html=1;rounded=0;labelBackgroundColor=#000000;fontColor=#000000;fillColor=#1ba1e2;exitX=0.62;exitY=1.011;exitDx=0;exitDy=0;exitPerimeter=0;strokeColor=#006EAF;" parent="1" edge="1">
          <mxGeometry width="50" height="50" relative="1" as="geometry">
            <mxPoint x="661.6729599999996" y="350.7944" as="sourcePoint" />
            <mxPoint x="711.84" y="350.69000000000005" as="targetPoint" />
          </mxGeometry>
        </mxCell>
      </root>
    </mxGraphModel>
  </diagram>
</mxfile>
